<mxfile host="app.diagrams.net" modified="2024-06-05T15:51:31.242Z" agent="Mozilla/5.0 (Macintosh; Intel Mac OS X 10_15_7) AppleWebKit/537.36 (KHTML, like Gecko) Chrome/125.0.0.0 Safari/537.36 Edg/125.0.0.0" etag="xQMPuYPkrWt5kR-7w8xv" version="24.4.14" type="github">
  <diagram id="prtHgNgQTEPvFCAcTncT" name="Page-1">
    <mxGraphModel dx="899" dy="554" grid="1" gridSize="10" guides="1" tooltips="1" connect="1" arrows="1" fold="1" page="1" pageScale="1" pageWidth="827" pageHeight="1169" math="0" shadow="0">
      <root>
        <mxCell id="0" />
        <mxCell id="1" parent="0" />
        <mxCell id="2Fra0jSn8zF7LKlEDc4x-1" value="api撞库流程图" style="swimlane;childLayout=stackLayout;resizeParent=1;resizeParentMax=0;startSize=20;html=1;" vertex="1" parent="1">
          <mxGeometry x="170" y="60" width="1050" height="1200" as="geometry" />
        </mxCell>
        <mxCell id="2Fra0jSn8zF7LKlEDc4x-2" value="xyf-api-gateway" style="swimlane;startSize=20;html=1;" vertex="1" parent="2Fra0jSn8zF7LKlEDc4x-1">
          <mxGeometry y="20" width="330" height="1180" as="geometry" />
        </mxCell>
        <mxCell id="2Fra0jSn8zF7LKlEDc4x-3" value="cis" style="swimlane;startSize=20;html=1;" vertex="1" parent="2Fra0jSn8zF7LKlEDc4x-1">
          <mxGeometry x="330" y="20" width="210" height="1180" as="geometry" />
        </mxCell>
        <mxCell id="2Fra0jSn8zF7LKlEDc4x-4" value="apiopfcore" style="swimlane;startSize=20;html=1;" vertex="1" parent="2Fra0jSn8zF7LKlEDc4x-1">
          <mxGeometry x="540" y="20" width="180" height="1180" as="geometry" />
        </mxCell>
        <mxCell id="2Fra0jSn8zF7LKlEDc4x-6" value="rcs" style="swimlane;startSize=20;html=1;" vertex="1" parent="2Fra0jSn8zF7LKlEDc4x-1">
          <mxGeometry x="720" y="20" width="170" height="1180" as="geometry" />
        </mxCell>
        <mxCell id="2Fra0jSn8zF7LKlEDc4x-5" value="lendtrade" style="swimlane;startSize=20;html=1;" vertex="1" parent="2Fra0jSn8zF7LKlEDc4x-1">
          <mxGeometry x="890" y="20" width="160" height="1180" as="geometry" />
        </mxCell>
      </root>
    </mxGraphModel>
  </diagram>
</mxfile>
